<?xml version="1.0" encoding="UTF-8"?> <!-- Generator: Adobe Illustrator 23.0.3, SVG Export Plug-In . SVG Version: 6.00 Build 0) --> <svg xmlns="http://www.w3.org/2000/svg" xmlns:xlink="http://www.w3.org/1999/xlink" id="Ebene_2" x="0px" y="0px" viewBox="0 0 202 50.6" style="enable-background:new 0 0 202 50.6;" xml:space="preserve"> <style type="text/css"> .st0{fill:#FFFFFF;} </style> <g> <path class="st0" d="M85.2,15.4c0,0-2.6-5.9-12.6-5.9c-10,0-17.4,8.5-17.4,20.4v0.2c0,11.9,7.4,20.4,17.4,20.4 c10,0,12.6-5.9,12.6-5.9v3.5l11.7,2.4V30.2v-0.2V9.5l-11.7,2.4V15.4z M76.5,39.5c-4.8,0-8.7-4.3-8.7-9.7c0-5.3,3.9-9.7,8.7-9.7 c4.8,0,8.7,4.3,8.7,9.7C85.2,35.1,81.3,39.5,76.5,39.5z"></path> <polygon class="st0" points="131.3,37.9 122.6,11.7 109.1,9.5 123.4,50.3 131.3,50.3 139.1,50.3 153.4,9.5 139.9,11.7 "></polygon> <polygon class="st0" points="25.5,37.1 13.7,2.1 0,0 17.9,50 25.5,50 33.1,50 51,0 37.2,2.1 "></polygon> <path class="st0" d="M181.6,9.5c-11.3,0-20.4,9.1-20.4,20.4c0,11.3,9.1,20.4,20.4,20.4S202,41.1,202,29.9 C202,18.6,192.9,9.5,181.6,9.5z M181.2,39.5c-4.5,0-8.1-4.3-8.1-9.7s3.6-9.7,8.1-9.7s8.1,4.3,8.1,9.7S185.7,39.5,181.2,39.5z"></path> </g> </svg> 